<svg version="1.1" viewBox="0.0 0.0 512.0 512.0" fill="none" stroke="none" stroke-linecap="square" stroke-miterlimit="10" xmlns:xlink="http://www.w3.org/1999/xlink" xmlns="http://www.w3.org/2000/svg"><clipPath id="g111288ed3dd_0_16.0"><path d="m0 0l512.0 0l0 512.0l-512.0 0l0 -512.0z" clip-rule="nonzero"/></clipPath><g clip-path="url(#g111288ed3dd_0_16.0)"><path fill="#ffffff" d="m0 0l512.0 0l0 512.0l-512.0 0z" fill-rule="evenodd"/><path fill="#073739" d="m0 512.0l0 -512.0l512.0 512.0z" fill-rule="evenodd"/><path fill="#13473b" d="m512.0 0l0 512.0l-512.0 -512.0z" fill-rule="evenodd"/><path fill="#167175" d="m151.04987 255.99475l0 0c0 -57.959457 46.985428 -104.944885 104.944885 -104.944885l0 0c27.8331 0 54.526245 11.056671 74.207245 30.73764c19.68097 19.680984 30.73764 46.37413 30.73764 74.207245l0 0c0 57.959473 -46.985413 104.944885 -104.944885 104.944885l0 0c-57.959457 0 -104.944885 -46.985413 -104.944885 -104.944885z" fill-rule="evenodd"/></g></svg>